{"title":"The.Kid.2010.DVDRiP.XviD.OPTIONAL-NORDIC_SUB-Zen_Bud","uid":5904012,"size":1071384526,"categoryP":"video","categoryS":"movies","magnet":"?xt=urn:btih:60da3a22cd09ab161cfd3f3cc28ee8f94cea0dbd&amp;dn=The.Kid.2010.DVDRiP.XviD.OPTIONAL-NORDIC_SUB-Zen_Bud&amp;tr=udp%3A%2F%2Ftracker.openbittorrent.com%3A80&amp;tr=udp%3A%2F%2Fopen.demonii.com%3A1337&amp;tr=udp%3A%2F%2Ftracker.coppersurfer.tk%3A6969&amp;tr=udp%3A%2F%2Fexodus.desync.com%3A6969","seeders":0,"leechers":0,"uploader":"Zen_Bud","files":-1,"time":1287781461,"description":"*********** The.Kid.2010.DVDRiP.XviD.OPTIONAL-NORDIC_SUB-Zen_Bud ************\n\n\nFormat                           : AVI\nFile size                        : 1 006 MiB\nDuration                         : 1h 46mn\nOverall bit rate                 : 1 317 Kbps\n\nVideo\n\nFormat                           : MPEG-4 Visual\nCodec ID/Hint                    : XviD\nDuration                         : 1h 46mn\nBit rate                         : 1 176 Kbps\nWidth                            : 720 pixels\nHeight                           : 576 pixels\nDisplay aspect ratio             : 16:9\nStream size                      : 898 MiB (89%)\nWriting library                  : XviD 1.1.2 (UTC 2006-11-01)\n\nAudio\n\nFormat                           : MPEG Audio\nCodec ID/Hint                    : MP3\nDuration                         : 1h 46mn\nBit rate                         : 128 Kbps\nChannel(s)                       : 2 channels\nSampling rate                    : 48.0 KHz\nStream size                      : 97.7 MiB (10%)\nWriting library                  : LAME3.98\nLanguage                         : English\n\nText #1\nLanguage                         : Finnish\n\nText #2\nLanguage                         : Norwegian\n\nText #3\nLanguage                         : Swedish\n\nText #4\nLanguage                         : Danish\n\n\nAbout Kevin Lewis who grew up in poverty but\n survived to make a better life for himself and his family. ","torrent":{"xt":"urn:btih:60da3a22cd09ab161cfd3f3cc28ee8f94cea0dbd","amp;dn":"The.Kid.2010.DVDRiP.XviD.OPTIONAL-NORDIC_SUB-Zen_Bud","amp;tr":["udp%3A%2F%2Ftracker.openbittorrent.com%3A80","udp%3A%2F%2Fopen.demonii.com%3A1337","udp%3A%2F%2Ftracker.coppersurfer.tk%3A6969","udp%3A%2F%2Fexodus.desync.com%3A6969"],"infoHash":"60da3a22cd09ab161cfd3f3cc28ee8f94cea0dbd","infoHashBuffer":{"type":"Buffer","data":[96,218,58,34,205,9,171,22,28,253,63,60,194,142,232,249,76,234,13,189]},"announce":[],"urlList":[]}}